<svg xmlns="http://www.w3.org/2000/svg" viewBox="0 0 100 100" width="32" height="32">
<path d="M50 10c-15 0-27 8-27 20s12 20 27 20c15 0 27-8 27-20s-12-20-27-20zm0 28c-5 0-9-4-9-9s4-9 9-9 9 4 9 9-4 9-9 9zm-28 32c0-12 12-20 27-20s27 8 27 20-12 20-27 20-27-8-27-20zm54 0c0-12-12-20-27-20s-27 8-27 20 12 20 27 20 27-8 27-20zm-9-28h-18v-6h18v6zm0-12h-12v-6h12v6z" fill="#F5A623"/>
<path d="M75 10h-30v6h30v-6zm0 12h-18v6h18v-6zm-9 12h-18v6h18v-6zm9 12h-30v6h30v-6zm0 12h-18v6h18v-6zm0 12h-18v6h18v-6z" fill="#F5A623"/>
</svg>